<svg width="48" height="48" viewBox="0 0 48 48" fill="none" xmlns="http://www.w3.org/2000/svg">
<path d="M26.4296 38.5339C26.4727 34.1281 25.3557 30.5454 23.9349 30.5315C22.514 30.5177 21.3273 34.0779 21.2843 38.4836C21.2412 42.8893 22.3581 46.4721 23.7789 46.4859C25.1998 46.4998 26.3866 42.9396 26.4296 38.5339Z" fill="white"/>
<path d="M18.1892 37.5333C20.6075 33.8504 21.605 30.2325 20.4173 29.4526C19.2295 28.6727 16.3062 31.026 13.888 34.709C11.4696 38.3919 10.4721 42.0097 11.6598 42.7897C12.8476 43.5696 15.7708 41.2162 18.1892 37.5333Z" fill="white"/>
<path d="M11.788 32.2492C15.8137 30.4586 18.6089 27.9546 18.0314 26.6563C17.4539 25.358 13.7224 25.7571 9.69674 27.5478C5.67112 29.3384 2.87586 31.8425 3.45335 33.1408C4.03082 34.4391 7.76238 34.0399 11.788 32.2492Z" fill="white"/>
<path d="M17.5482 23.0154C17.7644 21.611 14.4095 19.9292 10.0549 19.2589C5.70026 18.5886 1.99491 19.1838 1.77876 20.5882C1.56261 21.9926 4.9175 23.6743 9.27214 24.3446C13.6267 25.0149 17.3321 24.4197 17.5482 23.0154Z" fill="white"/>
<path d="M19.1117 19.67C20.0527 18.6054 18.1392 15.377 14.8378 12.4593C11.5365 9.54157 8.09741 8.0394 7.15644 9.10409C6.21547 10.1688 8.12894 13.3972 11.4303 16.3149C14.7317 19.2327 18.1708 20.7348 19.1117 19.67Z" fill="white"/>
<path d="M22.2253 17.7148C23.5926 17.3279 23.7284 13.5775 22.5288 9.33804C21.3292 5.0986 19.2483 1.97549 17.8811 2.36238C16.5138 2.74926 16.378 6.49964 17.5776 10.7391C18.7772 14.9785 20.8581 18.1017 22.2253 17.7148Z" fill="white"/>
<path d="M30.6801 10.8711C31.9631 6.65608 31.9013 2.90375 30.5419 2.48998C29.1826 2.0762 27.0405 5.15767 25.7575 9.37263C24.4745 13.5876 24.5363 17.3399 25.8957 17.7537C27.2551 18.1674 29.3971 15.086 30.6801 10.8711Z" fill="white"/>
<path d="M36.7213 16.5664C40.0791 13.7137 42.0554 10.5234 41.1353 9.44052C40.2153 8.35764 36.7475 9.79233 33.3898 12.6449C30.032 15.4975 28.0559 18.6879 28.9759 19.7708C29.8958 20.8536 33.3636 19.419 36.7213 16.5664Z" fill="white"/>
<path d="M38.7189 24.6258C43.086 24.0416 46.4733 22.4263 46.2849 21.0179C46.0965 19.6096 42.4036 18.9415 38.0366 19.5257C33.6696 20.1099 30.2822 21.7252 30.4706 23.1336C30.659 24.5419 34.3519 25.2101 38.7189 24.6258Z" fill="white"/>
<path d="M44.3524 33.5433C44.9554 32.2567 42.2101 29.698 38.2205 27.8284C34.231 25.9587 30.508 25.4861 29.9051 26.7726C29.3021 28.0593 32.0474 30.618 36.037 32.4877C40.0264 34.3573 43.7494 34.83 44.3524 33.5433Z" fill="white"/>
<path d="M35.9606 43.0368C37.1634 42.2805 36.2374 38.6437 33.8922 34.9138C31.5471 31.1839 28.6707 28.7734 27.4678 29.5297C26.2649 30.286 27.191 33.9229 29.5361 37.6527C31.8813 41.3826 34.7577 43.7932 35.9606 43.0368Z" fill="white"/>
</svg>
